{
  "accessors": [
    {
      "bufferView": 1,
      "componentType": 5126,
      "count": 58318,
      "max": [
        6.893128395080566,
        22.08924102783203,
        53.09586715698242
      ],
      "min": [
        -7.629323482513428,
        -30.085742950439453,
        -9.965893745422363
      ],
      "type": "VEC3"
    },
    {
      "bufferView": 1,
      "byteOffset": 699816,
      "componentType": 5126,
      "count": 58318,
      "max": [
        0.9999985098838806,
        0.9999651908874512,
        0.9999205470085144
      ],
      "min": [
        -0.9999986290931702,
        -0.9999100565910339,
        -0.9999473690986633
      ],
      "type": "VEC3"
    },
    {
      "bufferView": 0,
      "componentType": 5125,
      "count": 291144,
      "type": "SCALAR"
    }
  ],
  "asset": {
    "extras": {
      "author": "halimi13744 (https://sketchfab.com/halimi13744)",
      "license": "CC-BY-4.0 (http://creativecommons.org/licenses/by/4.0/)",
      "source": "https://sketchfab.com/3d-models/horse-2287485aa2e54f87854b0472444c5930",
      "title": "Horse"
    },
    "generator": "Sketchfab-12.67.0",
    "version": "2.0"
  },
  "bufferViews": [
    {
      "buffer": 0,
      "byteLength": 1164576,
      "name": "floatBufferViews",
      "target": 34963
    },
    {
      "buffer": 0,
      "byteLength": 1399632,
      "byteOffset": 1164576,
      "byteStride": 12,
      "name": "floatBufferViews",
      "target": 34962
    }
  ],
  "buffers": [
    {
      "byteLength": 2564208,
      "uri": "scene.bin"
    }
  ],
  "materials": [
    {
      "doubleSided": true,
      "name": "material_0",
      "pbrMetallicRoughness": {
        "baseColorFactor": [
          0.32678499451798465,
          0.2292558252263661,
          0.1427835160390685,
          1.0
        ],
        "metallicFactor": 0.3501534227415404,
        "roughnessFactor": 0.6738601825003471
      }
    }
  ],
  "meshes": [
    {
      "name": "Object_0",
      "primitives": [
        {
          "attributes": {
            "NORMAL": 1,
            "POSITION": 0
          },
          "indices": 2,
          "material": 0,
          "mode": 4
        }
      ]
    }
  ],
  "nodes": [
    {
      "children": [
        1
      ],
      "matrix": [
        1.0,
        0.0,
        0.0,
        0.0,
        0.0,
        2.220446049250313e-16,
        -1.0,
        0.0,
        0.0,
        1.0,
        2.220446049250313e-16,
        0.0,
        0.0,
        0.0,
        0.0,
        1.0
      ],
      "name": "Sketchfab_model"
    },
    {
      "children": [
        2
      ],
      "name": "Horse.obj.cleaner.materialmerger.gles"
    },
    {
      "mesh": 0,
      "name": "Object_2"
    }
  ],
  "scene": 0,
  "scenes": [
    {
      "name": "Sketchfab_Scene",
      "nodes": [
        0
      ]
    }
  ]
}
